<svg id="Layer_1" data-name="Layer 1" xmlns="http://www.w3.org/2000/svg" viewBox="0 0 815.96 396.64"><defs><style>.cls-1{fill:#27aae1;}.cls-2,.cls-3{fill:#2bb673;}.cls-2{stroke:#006838;stroke-linecap:round;stroke-linejoin:round;stroke-width:4px;}.cls-4{fill:#006838;}</style></defs><title>worldMap</title><rect class="cls-1" width="815.96" height="396.64"/><path class="cls-2" d="M223.06,104.06a1.33,1.33,0,0,1-.76.41c-5.74,1-11.75,5.33-16.23,8.75-7.44,5.68-13.79,12.61-20.56,19a110.68,110.68,0,0,1-16.2,13.18c-1.44.92-.56,6.48.23,9.64a7.21,7.21,0,0,1-1.35,6.87,1.35,1.35,0,0,1-2.2-.19c-1-1.77-2.12-3.54-2.09-5.3.06-4.9-3-6.75-6.59-8.14s-6.48-.9-9.2,2.83c-3.19,4.36-6.1-2.4-10.71-1.11-14.33,4-16.3,14.85-16.82,26.69-.21,4.67,4.25,6.2,8.18,7,4.37.92,8.11-.34,9.72-4.82,1.3-3.6,3.36-5.48,7-3.83s.82,4.44,0,6.24c-2.39,5.6-6,11.24,5.12,9.52,2-.31,3.51.83,2.92,3.43-1.14,5,18.77,20.67,20.6,24.74l-2.62,1.73c-2.13-2.22-24-15.74-26.21-18.1-7.08-7.66-17.95-10.34-28.9-12.24-7.36-1.28-15.42-3.89-17.48-15.32-1.83-10.16-9.07-19.35-14-28.92a1.41,1.41,0,0,0-.82-.55,1.33,1.33,0,0,0-1.66.68,4,4,0,0,0-.67,2.46c1.26,4.68,2.9,9.25,4.34,13.88a19.58,19.58,0,0,1,.49,3.08c-.65-.81-1.74-1.55-1.9-2.45C82.28,149,71.28,137.74,70.5,123c-.35-6.71,4.83-11.14,8.84-15,11.53-11,9-25.38,6.53-37.2-1.94-9.17-15.39-8.71-24.25-7.86-7.62.72-15,4.19-22.43,6.69a1.34,1.34,0,0,1-1.68-.87,3.94,3.94,0,0,0-2-2.38l.81-7.9c4.09-1.22,8.18-2.44,12.19-3.89a1.35,1.35,0,0,0,.36-.18,1.33,1.33,0,0,0-1-2.39,5.56,5.56,0,0,1-1,.11,7.13,7.13,0,0,1-2.53-.58,1.32,1.32,0,0,1-.81-1.66,4.55,4.55,0,0,1,.59-1.26C46.82,44.82,55.76,54,56,42.77c0-1.58,10.05-3.4,15.57-4.35a195.11,195.11,0,0,1,20.36-2.15c6.3-.42,11.49-.07,17.13,5.42s13.79-2.33,21.18-2.27c12.62.09,24.92,1.17,36.63,6.62,1.65.77,4.84-2.11,7.43-3,9-3,21,9,28-7.21,2.83-6.52,5.32,3,6.36,4.63,4.66,7.4,7.64-.7,11.3-.56.7,0,1.43-.36,2.08-.24.26.06.65,1.28.48,1.45-1.43,1.36-2.78,3.14-4.53,3.77a90.61,90.61,0,0,1-13.14,3.61c-4.1.79-3.51,7.69-9.26,6.47-1.83-.39-4.22,1.33-6.21,2.36C184.14,60,176.42,61.57,177.47,69c1,7,8.38,7.25,14.09,7.8,5,.48,2.23,2.91,1.73,4.84-.79,3,.22,4.88,3.36,5.63S201,86,201.13,83.68c.18-3.15,1.72-4.73,4.46-5.17,5.85-1,8-4,6.55-9.87-.33-1.32.62-4,1.66-4.45,6.52-2.67,13.78-13.26,19,2,2.26,6.56,5.74-.81,8.78-.66a7.44,7.44,0,0,0,2.25-.36,1.33,1.33,0,0,1,1.69,1.17,8.58,8.58,0,0,1,0,1.68c-.51,5.25-.79,10.24,6.26,11.49.8.14,2.11,2.46,1.84,2.85-2.67,3.9-5.79,7.48-10.89,8.1-6.77.84-13.6,1.32-20.35,2.32a4.47,4.47,0,0,0-1.78.76,1.33,1.33,0,0,0,.62,2.44c.77.07,1.54.13,2.31.17.95.05,1.9.07,2.85.1a1.32,1.32,0,0,1,.9,2.27v0a4.56,4.56,0,0,0-1.49,2.18,1.38,1.38,0,0,1-.29.65Z"/><path class="cls-2" d="M229.29,106.7"/><path class="cls-3" d="M216.92,390.51c-1-1-2-1.9-3.07-2.8-2.43-2.11-4.94-4.29-5.52-6.55-1.25-4.88-2.76-9.78-4.22-14.51-3.89-12.6-7.91-25.62-7.34-39.26.41-9.57.37-19.74-.09-31.11-.21-5.09-5.53-7.33-7.27-8.07-14.15-6-20.28-19.36-26.21-32.31-.55-1.21-1.1-2.41-1.66-3.6C159.09,247,163,240.67,167,233.93a76.51,76.51,0,0,0,5-9.17,16.24,16.24,0,0,0,.89-6.5c0-3.89.18-6.37,3.39-8.19a16.87,16.87,0,0,0,3.55-3.06,10.08,10.08,0,0,1,2.42-2.11c.66.37,1.74,2.8,1.2,5.11a2.59,2.59,0,0,0,1.15,2.58,1,1,0,0,1,.19.16,2.07,2.07,0,0,0,1.42.58h.08a2,2,0,0,0,1.45-.68c.14-.17.29-.32.44-.48a6.62,6.62,0,0,0,1.41-1.85c.58-1.22,1.1-2.46,1.61-3.68,3,1.93,6.4,2.19,9.48,2.43,2.89.22,5.62.42,7.85,1.87A258.43,258.43,0,0,0,232.78,225a13.25,13.25,0,0,1,7.22,8.35c.11.49-.75,2.07-1.21,2.93-.36.66-.73,1.35-1,2a4.89,4.89,0,0,1-.44.52c-.18.19-.35.38-.51.58a2,2,0,0,0,1.56,3.25l.31,0c.25,0,.51-.1.76-.16a4,4,0,0,1,.61-.11c16.17,2.07,29.89,6.76,41.94,14.33a5,5,0,0,1,0,1.92c-7.23,7.66-8.81,17.08-10.33,26.19-.95,5.65-1.84,11-4,15.93a7.45,7.45,0,0,1-2,2.79c-12.94.74-15.51,9.58-17.78,17.37a46.24,46.24,0,0,1-2.8,7.84c-.34.66-.68,1.4-1,2.18-1.95,4.28-3.7,7.55-6.88,7.55a9.8,9.8,0,0,1-4.8-1.66,2.38,2.38,0,0,0-1.24-.34,3.85,3.85,0,0,0-1.34.29l-.24.08a2,2,0,0,0-1.22,3.08l.82,1.19c.63.9,1.22,1.75,1.77,2.63a5.12,5.12,0,0,0,3,1.88l.07,0a20.64,20.64,0,0,0-1.07,2c-1.08,2.13-1.72,3.14-2.91,3.14a4.84,4.84,0,0,1-1.79-.43,5.19,5.19,0,0,0-2-.45,3.12,3.12,0,0,0-2.35,1c-1,1.1-1.08,2.72-1,4.15a16.21,16.21,0,0,1,0,2.71,7.58,7.58,0,0,1-1.68-.8,2.82,2.82,0,0,0-1.4-.38,2.1,2.1,0,0,0-1.75.86c-.35.47-.66,1-1,1.46l-.27.42a2,2,0,0,0-.26,1.59,2,2,0,0,0,1,1.26c2.25,1.2,2.16,2.2.83,5.59-1,2.5-2.47,6.27,1.06,8.93,1.83,1.37,2,2.68.86,5a13.57,13.57,0,0,0-1.67,8.84Z"/><path class="cls-4" d="M183,206.75h0m-1.46,1.35a4,4,0,0,1-.05,1.46,4.42,4.42,0,0,0,1.82,4.57l.1.08a4,4,0,0,0,2.8,1.14h.13a4,4,0,0,0,2.91-1.4,4.27,4.27,0,0,1,.36-.38,8.91,8.91,0,0,0,1.78-2.39c.28-.59.54-1.17.79-1.75a25.49,25.49,0,0,0,8.34,1.63c2.74.21,5.11.39,6.91,1.56a259.7,259.7,0,0,0,24.41,14.17A11.27,11.27,0,0,1,238,233.5a19.7,19.7,0,0,1-.92,1.84c-.34.63-.69,1.28-1,2l-.17.18c-.21.22-.41.45-.6.68a4,4,0,0,0,3.12,6.51,3.31,3.31,0,0,0,.62-.05c.35,0,.66-.12.91-.18l.17,0c15.36,2,28.45,6.4,39.95,13.45-7.18,8-8.77,17.46-10.3,26.64-.93,5.52-1.8,10.74-3.86,15.46a7.12,7.12,0,0,1-1,1.64c-13.73,1.11-16.57,10.88-18.87,18.76a42.86,42.86,0,0,1-2.66,7.49c-.36.71-.7,1.46-1.06,2.26-1.66,3.61-3.08,6.38-5.07,6.38a7.74,7.74,0,0,1-3.77-1.38,4.47,4.47,0,0,0-2.27-.62,5.8,5.8,0,0,0-2,.4l-.11,0a4,4,0,0,0-2.34,6.14l.83,1.2c.61.88,1.19,1.71,1.72,2.55a5.66,5.66,0,0,0,1.91,1.82l0,.07a10.57,10.57,0,0,1-1.2,2.05,3.68,3.68,0,0,1-.94-.28,7.19,7.19,0,0,0-2.78-.6,5.16,5.16,0,0,0-3.81,1.61,6.93,6.93,0,0,0-1.55,5.16,5,5,0,0,0-1-.11,4.1,4.1,0,0,0-3.37,1.68c-.39.54-.72,1.06-1.05,1.57l-.26.4a4,4,0,0,0,1.48,5.71,2.89,2.89,0,0,1,.72.49,10.68,10.68,0,0,1-.82,2.6c-1,2.5-3,7.69,1.73,11.26.89.67,1.13.85.28,2.51a18,18,0,0,0-2,6.59l-1.31-1.15c-2.2-1.91-4.46-3.89-4.89-5.54-1.27-4.93-2.78-9.84-4.25-14.6-4-13-7.8-25.29-7.25-38.59.41-9.62.38-19.85-.09-31.27-.26-6.35-6.46-9-8.5-9.83-13.43-5.67-19.39-18.7-25.16-31.3l-1.66-3.62c-2-4.29,1.58-10.21,5.38-16.49a78,78,0,0,0,5.13-9.42,18,18,0,0,0,1-7.27c0-3.87.19-5.22,2.37-6.46a17.77,17.77,0,0,0,4-3.42l.28-.29m58.66,36.28h0m-57.91-41.49c-2.25,0-4.4,4-7,5.44-6.8,3.86-3.07,10.81-5.13,15.65-4.15,9.74-14.61,20.27-10.46,29.16,6.45,13.85,12.65,30.05,28.9,36.91,3.29,1.39,5.93,3.26,6.05,6.31.42,10.3.53,20.65.1,30.95-.8,19.14,7,36.42,11.62,54.35,1.07,4.17,6.33,7.26,9.67,10.85h5.31c-1.64-3.45-1-6.49.7-9.93,1.08-2.14,1.92-5-1.44-7.53-5-3.8,5.37-10.67-2.16-14.68.39-.61.77-1.22,1.19-1.8,0,0,.06,0,.13,0a1,1,0,0,1,.38.09,6.46,6.46,0,0,0,3,1.16c1.86,0,1.8-2.38,1.63-4.91-.09-1.48,0-3,1.34-3a3.37,3.37,0,0,1,1.25.3,6.86,6.86,0,0,0,2.55.58c3.48,0,4.28-4.09,5.86-6.3,2.07-2.9-2.29-2.3-3.23-3.77-.83-1.32-1.75-2.59-2.63-3.88a7.46,7.46,0,0,1,1.15-.32.46.46,0,0,1,.21.05,11.54,11.54,0,0,0,5.83,1.95c5.63,0,7.69-6.89,9.7-10.82,4.83-9.47,3.16-23.29,19-24.13,1.29-.07,2.91-2.38,3.61-4,5.86-13.47,2.84-29.93,14.08-41.68.77-.82.58-4.13-.21-4.63-13.16-8.36-27.71-12.88-43.11-14.85h-.24a11.15,11.15,0,0,0-1.68.29,7.87,7.87,0,0,0,1.23-1.57c.9-2.1,2.82-4.58,2.31-6.31a15.25,15.25,0,0,0-8.24-9.58,257.26,257.26,0,0,1-24-14c-5.95-3.86-14-.24-19.23-5.89-.85,2-1.65,4.1-2.59,6.09a9.92,9.92,0,0,1-1.57,1.89c-.29-.3-.87-.66-.82-.88.79-3.38-1-7.5-3-7.58Z"/><path class="cls-3" d="M287.45,60.77c-1.87,0-4.6-4.11-5.62-7.52a15,15,0,0,0-1.52-3c-.78-1.32-2.42-4.06-1.92-4.93.06-.11.73-1.07,4.89-1.07h.29A3.16,3.16,0,0,0,286,43c.93-1,2.32-3.39,2.11-5.3-1-8.76-5.06-14.81-12.13-18a13.36,13.36,0,0,0,5-2.56,2.71,2.71,0,0,0,1-2.1,3.78,3.78,0,0,0-1-2.84,3.85,3.85,0,0,0-2.8-1.22h-.22a16.9,16.9,0,0,0-3,.37l-4.56,1.06c-9.51,2.19-19.34,4.46-28.67,8.68a3.57,3.57,0,0,1-1.47.25c-2.84,0-6.92-1.81-9.49-3.61l-.43-.33a15.38,15.38,0,0,1,2.08-.94l.63-.25a7.89,7.89,0,0,1,2.26-.35,14.56,14.56,0,0,0,2.68-.34c6.57-1.69,13.23-3.48,19.67-5.22l3-.8a2.73,2.73,0,0,0,1.34-.87h7.67c1.81.3,3.69.72,5.51,1.12a52.21,52.21,0,0,0,11.31,1.68h0c.63,0,1.24,0,1.84-.07,2.92-.22,6-.34,9.35-.34,5.94,0,12,.36,17.89.7s12.06.71,18.13.71a106.35,106.35,0,0,0,18.05-1.38l.22,0c1,0,2.63.95,4.09,1.86-1.05.55-2.65,1.5-2.75,3.21-.2,3.57-2.83,4.91-7.1,6.79-4.81,2.12-10.79,4.76-9.6,13.46a.49.49,0,0,1,0,.2c-.39.46-2.92.71-4.14.82a26.33,26.33,0,0,0-3.47.5c-14.27,3.53-29,7.17-39.57,21.46C288.89,60,288.17,60.77,287.45,60.77Z"/><path class="cls-4" d="M269.18,10.67c-9.38,2.16-19.06,4.44-28.33,8.64a2.11,2.11,0,0,1-.65.07A13.86,13.86,0,0,1,235,17.92l.37,0a15.48,15.48,0,0,0,3-.41c6.58-1.68,13.23-3.47,19.66-5.2l3-.82a4.52,4.52,0,0,0,1.6-.8h6.47M352,13.06h0m-54.4,0c5.88,0,11.93.36,17.77.7s12.13.71,18.25.71a108.35,108.35,0,0,0,18.3-1.4,2.65,2.65,0,0,1,.44.14A4.74,4.74,0,0,0,351.24,16c-.12,2.19-1.44,3.1-5.9,5.07s-11.44,5-10.93,14.07c-.7.11-1.58.19-2.2.25a25.8,25.8,0,0,0-3.76.55c-14.61,3.61-29.72,7.34-40.7,22.21a3.13,3.13,0,0,1-.4.47c-1-.68-2.8-3.29-3.61-6A15.47,15.47,0,0,0,282,49.24a26.79,26.79,0,0,1-1.49-2.75,13.87,13.87,0,0,1,2.74-.22h.31a5.08,5.08,0,0,0,3.85-1.92c1-1.15,2.91-4.08,2.6-6.86-.87-7.77-4.18-13.76-9.65-17.54a19.86,19.86,0,0,0,1.72-1.19,4.68,4.68,0,0,0,1.83-3.55,5.83,5.83,0,0,0-.18-1.86c.88.08,1.77.12,2.66.12.68,0,1.35,0,2-.07,2.87-.23,5.87-.34,9.19-.34m-28-6.39h-9.28l.39.37c-.21.19-.39.5-.64.57-7.54,2-15.07,4.07-22.64,6-1.69.43-3.63.13-5.2.78-2.16.88-6.62,2.23-2.66,5,2.82,2,7.3,4,10.63,4a5.55,5.55,0,0,0,2.3-.43c10.6-4.79,21.75-7,32.86-9.61A14.77,14.77,0,0,1,278,13h.11A1.82,1.82,0,0,1,280,14.93a.88.88,0,0,1-.24.64,11.07,11.07,0,0,1-4.56,2.27l-.1,0a1.81,1.81,0,0,0-.41,3.48l.21.1c7.1,3.08,10.39,9.14,11.22,16.5.15,1.4-1.62,4.33-2.48,4.33h-.31c-12.76,0-4.28,8.49-3.37,11.55,1,3.29,4.09,9,7.54,9,1.16,0,2.35-.64,3.52-2.22,10-13.54,23.92-17.11,38.44-20.7,3.39-.84,9.61-.06,9.11-3.73-1.84-13.4,16.11-9.1,16.72-19.87,0-.59.88-1.14,1.93-1.68a1.82,1.82,0,0,0,.14-3.17c-1.87-1.17-3.74-2.33-5.41-2.33a3.43,3.43,0,0,0-.56,0,104.68,104.68,0,0,1-17.71,1.35c-12,0-24-1.41-36-1.41-3.17,0-6.34.1-9.51.35q-.84.06-1.68.06c-5.43,0-11-1.87-16.5-2.78l-.32,0Z"/><path class="cls-3" d="M782.68,268.4a6.64,6.64,0,0,1-4.26-2.63,10,10,0,0,0-8.64-4.48,30,30,0,0,0-4.25.41c-1,.15-2.11.31-3.16.37-.42,0-.89.05-1.39.05-2.3,0-3.91-.47-4.76-1.39a4.93,4.93,0,0,1-.93-3.79c.19-2.71-3.56-5.87-6-6.43a10.39,10.39,0,0,0,2.92-3.55,9.51,9.51,0,0,1,2.6.56,52.44,52.44,0,0,0,6.85,2.41c5.59,1.68,10.87,3.27,12.8,8.63C776.23,263.6,779.46,266.11,782.68,268.4Zm-42.54-22.72a30,30,0,0,1-2.28-3.06,5.16,5.16,0,0,1,.75-.1,8.41,8.41,0,0,1,.56.94A18.16,18.16,0,0,1,740.14,245.68Z"/><path class="cls-4" d="M754.5,246.66h0m-1.3,2.47a4.81,4.81,0,0,1,.72.21,55.84,55.84,0,0,0,7.12,2.51c6.13,1.84,10,3.19,11.49,7.39l.12.34a14.06,14.06,0,0,0-2.88-.29,31.62,31.62,0,0,0-4.53.43c-1,.15-2,.3-3,.35-.47,0-.89.05-1.27.05-2.35,0-3.09-.53-3.3-.76a3.36,3.36,0,0,1-.4-2.28c.2-2.75-2.09-5.54-4.62-7.18.19-.25.37-.5.54-.77m-14.32-8.62a18.91,18.91,0,0,0-3.87.71,2.32,2.32,0,0,0,.19,1c3.2,5.05,6.65,9.52,13.41,10.24,1.78.19,4.78,3,4.68,4.36-.45,6.38,4.16,7.33,7.69,7.33.54,0,1,0,1.51-.05,2.54-.16,5-.78,7.28-.78a8.07,8.07,0,0,1,7,3.67,9.27,9.27,0,0,0,7.88,3.62,17.59,17.59,0,0,0,2.48-.19v-1.18c-4.11-3.27-8.68-5.24-10.88-11.33-3.15-8.74-13.33-8.79-20.7-12.18a11.52,11.52,0,0,0-3.92-.76c-.48,0-.81.05-.86.18-1,2.43-2.85,4.53-4.85,4.53a3.05,3.05,0,0,1-1.16-.24c-1.92-.83-2.57-4.53-3.87-6.91-.42-.77-1.08-1.94-1.7-2Z"/><path class="cls-3" d="M434.83,338c-6.14,0-7-3.57-8-9.86-.49-3.07-1-6.24-2.72-8.56-6.55-8.8-12.23-23.12-9.83-32.32,5.08-19.49,2.55-33.21-8.46-45.8a18,18,0,0,1,.65-2.17,17.63,17.63,0,0,0,.94-3.42c.46-3.54-.88-7.29-3.75-10.56a24.72,24.72,0,0,0-17.79-8,17.8,17.8,0,0,0-6.08,1c-7.1,2.56-12.3,3.7-16.87,3.7-9,0-15.6-4.87-20.86-15.32-7.36-14.63-7.28-36.3,5.59-47.23,3.65-3.11,6-6.93,8.26-10.63s4.53-7.4,8-10.17c2.17-1.71,4.07-1.81,6.27-1.92a18.73,18.73,0,0,0,3.55-.42c7.12-1.73,14.59-2.78,21.81-3.8,3.22-.45,6.54-.92,9.81-1.45-1.53,3.38-1.77,6.12-.72,8.35,1.63,3.48,5.84,4.72,10,5.69a16,16,0,0,1,4.37,2.13,27,27,0,0,0,3.94,2.12l.52.21a13.18,13.18,0,0,0,4.81,1.27c1.68,0,4-.68,5.31-3.91,1-2.43,1.81-3.08,2.13-3.08.61,0,1.79.95,2.74,1.72,1.62,1.31,3.46,2.79,5.72,2.79a5.07,5.07,0,0,0,1.44-.21,9.27,9.27,0,0,1,2.69-.36,31.17,31.17,0,0,1,5.72.76,35,35,0,0,0,6.55.83,12.07,12.07,0,0,0,9.9-4.69c1.91-2.34,2.39-5.5,2.86-8.56.19-1.2.36-2.34.61-3.39a2.22,2.22,0,0,0-.33-1.79,2.26,2.26,0,0,0-1.57-.95c-1.06-.13-2.13-.3-3.19-.47a46.23,46.23,0,0,0-7.2-.75c-.32,0-.64,0-.95,0-.65,0-1.29,0-1.91,0-4.11,0-6.63-.71-7.95-2.23s-1.6-3.88-1.1-7.29a2.82,2.82,0,0,0-.84-2.29,3.49,3.49,0,0,0-2.44-1.4,2.18,2.18,0,0,0-.72.13c-2.33.84-4.63,1.8-6.85,2.72l-1.52.63a2.23,2.23,0,0,0-1.32,1.56,2.26,2.26,0,0,0,.5,2c1.39,1.59,1.26,3.68.89,4.16-2.55-.25-3.77-2.85-5.35-6.76-.38-1-.77-1.94-1.21-2.84-3.11-6.5-8.6-9.41-13.91-12.23-1.3-.69-2.65-1.41-3.91-2.15a2.18,2.18,0,0,0-1.14-.32,2.24,2.24,0,0,0-2.22,2q0,.38-.12.78c-.21,1.24-.47,2.79.49,4a36.11,36.11,0,0,0,4.47,4.45L416,115l3.29,3c-1.13-.91-2.29-2-3.51-3-4.37-3.87-8.89-7.88-13.44-7.88a5.79,5.79,0,0,0-.72,0c-5.32.51-18.13,3-22.05,14.74a9.61,9.61,0,0,1-9.32,6.93l-.93,0c-3.3,0-5.6-.8-6.83-2.36-2.2-2.81-1.27-8.13-.22-12.45.57-2.31,1.38-2.31,1.93-2.31a13.07,13.07,0,0,1,3.62.92,23.67,23.67,0,0,0,3.25,1,9.73,9.73,0,0,0,1.86.17c2.24,0,5.36-.67,6.76-2.55,2.41-3.25,1.63-7.63-1.9-10.66.66-.12,2.76-.65,2.87-2.46.18-3,1.81-3.63,5.2-4.6,2.58-.74,5.51-1.57,7.27-4.37,1.12-1.76,4.95-4.22,6.58-5.28a13.83,13.83,0,0,1,7.89-2.09,49.53,49.53,0,0,1,5.55.42,52.76,52.76,0,0,0,5.77.42,16.06,16.06,0,0,0,7.92-1.8c.47-.26,1-.51,1.46-.77,3.93-2,9.22-4.78,9.83-11.16a6.85,6.85,0,0,0,1.89.27,7.57,7.57,0,0,0,5.53-2.64c1.25-1.31.56-3.8.55-3.82a2,2,0,0,0-1.66-1.32c-1-.12-2-.2-3-.28-1.42-.11-2.76-.22-4.08-.44a11.33,11.33,0,0,1-3.17-1,5.51,5.51,0,0,1,.23-1.07c.5-1.39,1.11-2.75,1.76-4.18l.69-1.53a2.26,2.26,0,0,0-1.28-3c-.17-.06-.35-.14-.53-.22A5.45,5.45,0,0,0,432.9,49a2.6,2.6,0,0,0-1.38.38c-.67.43-1.39.83-2.11,1.24-2.6,1.47-5.28,3-6.69,5.54-1,1.81-.76,4-.54,6,.14,1.28.32,2.87-.05,3.44a35.09,35.09,0,0,0-1.83,3.34c-1,2-2.74,5.39-4,5.39-.28,0-1.85-.25-4.75-5.38-1.74-3.07-5-3.36-7.59-3.6-3.4-.31-4.48-.54-4.59-3.36-.07-1.58.37-1.85,2.84-2.7,2-.7,4.57-1.57,6.12-4.33C413.57,45.72,427,39.27,441,39.27a34.05,34.05,0,0,1,13.81,2.67,39.84,39.84,0,0,0,4.3,1.56c1,.32,2,.63,2.95,1a9,9,0,0,0,1.39.37l.37.07c-.14.37-.27.43-.84.43a12.54,12.54,0,0,1-1.79-.2,14.72,14.72,0,0,0-2.38-.17c-1.12,0-2.23.09-3.3.18-.64.06-1.27.11-1.9.14a2.24,2.24,0,0,0-2,2.94c0,.11.08.25.12.38a3.31,3.31,0,0,0,2,2.6,8,8,0,0,1,2.51,2.31c1.4,1.64,3,3.49,5.26,3.49a5.13,5.13,0,0,0,3.77-1.93c6.32-6.89,14.47-8.34,23.1-9.87,4.88-.86,9.92-1.75,14.62-3.71a1.13,1.13,0,0,1,.19,0c1,0,2.81,1,4.42,2A23.74,23.74,0,0,0,513.12,46a4.51,4.51,0,0,0,1.23.16A11.5,11.5,0,0,0,518.77,45c.56-.24,1.09-.46,1.59-.64a2.22,2.22,0,0,0,1.45-1.55,2.25,2.25,0,0,0-.51-2.06l-.58-.62a7.36,7.36,0,0,1-1.23-1.51c-.78-1.51-1.5-3.12-2.18-4.69l.55,0a4.2,4.2,0,0,1,1,.1c2.58.62,4.08,2.49,4.85,6.06l.07.34a24.88,24.88,0,0,0,1.87,6.07,2.16,2.16,0,0,0,2.06,1.19,12.47,12.47,0,0,0,2.71-.52l1.22-.29a2.25,2.25,0,0,0,1.46-1.07,2.21,2.21,0,0,0,.19-1.81l-.49-1.51a3.87,3.87,0,0,0,2.14.77,2.76,2.76,0,0,0,.91-.16,4.67,4.67,0,0,0,2.89-2.67c.79-2.06-.15-4.3-.93-5.8a3.48,3.48,0,0,1-.57-1.77h0a5.4,5.4,0,0,1,1.91-.25h.26c5.94,0,11.34-2,16.57-3.95s10-3.7,15.19-3.7c.59,0,1.18,0,1.77.07,2.32.19,4.64.34,7,.49,2.62.17,5.31.34,8,.57l-.19.29c-.62,1-1.13,2-1.64,2.92l-.45.87a2.23,2.23,0,0,0,1.62,3.26l1,.17a29.52,29.52,0,0,0,3.09.42q6.38.42,12.75.77c13.75.79,28,1.61,41.87,3.77a22.69,22.69,0,0,0,3.5.25,56.85,56.85,0,0,0,8-.75,62.59,62.59,0,0,1,8.52-.78,27.05,27.05,0,0,1,3.44.21c5,.63,10.27,1.59,15.32,2.52,9,1.66,18.31,3.37,27.23,3.37a60.66,60.66,0,0,0,7.81-.48,40.28,40.28,0,0,1,5.08-.32c5.88,0,11.57,1.25,17.07,2.46,3.73.82,7.54,1.66,11.44,2.12a19.85,19.85,0,0,0-2.7,1.49,2.25,2.25,0,0,0,0,3.74l5.86,3.93-.08,1.15c-.5.31-1,.63-1.47,1-2.35,1.55-4.38,2.89-6.92,2.89a8.55,8.55,0,0,1-1.84-.22,2.56,2.56,0,0,0-.62-.07c-2.59,0-5.59,3.75-6.22,5.79a3.74,3.74,0,0,0,.21,3.17,4.59,4.59,0,0,0,3.43,1.85,5.86,5.86,0,0,1,1,.26c3.75,2.62,3.55,5.75,2.9,10.63-.11.79-.22,1.6-.3,2.41l-1.29-1.31c-1.46-1.48-3-3-4.5-4.5-5.82-5.65-8.06-9.62-4.19-15.63.64-1,.48-2.26-.53-4.1-1.73-3.17-3.12-3.17-3.58-3.17h-.17l-1.1.08c-8.11.57-11.72,1.09-12.27,3.71-1.2,5.73-3.44,5.73-4.4,5.73a16.4,16.4,0,0,1-5.4-1.5A22.44,22.44,0,0,0,705,63a18.44,18.44,0,0,0-3.16-.28c-4.67,0-8.39,2-11.37,6.09-2.08,2.85-2.94,8.86-.9,12.05,1.16,1.82,3.92,2.7,8.42,2.7.92,0,1.9,0,2.84-.12.34,0,.68,0,1,0a10.73,10.73,0,0,1,10.58,9.31c.08,1,.25,2.16.44,3.36.58,3.69,1.23,7.88-.73,10.27-1.2,1.46-3.46,2.27-6.71,2.4a4.58,4.58,0,0,0-2.9,1.63,3.44,3.44,0,0,0-1,2.51,7.08,7.08,0,0,1-1.09,3c-1.38,2.68-3.69,7.18,2.78,10.85a23.29,23.29,0,0,0,2.23,1.06c1.48.64,3.72,1.62,3.92,2.6.06.26.08,1.25-1.86,3.35a4.06,4.06,0,0,1-2.1,1c0-.1-.07-.19-.1-.28a6.87,6.87,0,0,0-1.63-2.8,13.91,13.91,0,0,1-2.59-4c-1.62-3.17-3.65-7.12-8.68-7.12a11.4,11.4,0,0,0-3.14.47,9.58,9.58,0,0,1-.83-1.12,18.19,18.19,0,0,1-1.22-2.5c-.14-.32-.28-.65-.43-1a2.23,2.23,0,0,0-2-1.32,2.27,2.27,0,0,0-1.37.47c-.41.32-.84.62-1.27.93a15.1,15.1,0,0,0-3.7,3.28,37.7,37.7,0,0,0-3.18,5.6c-.32.66-.65,1.31-1,1.95a2.24,2.24,0,0,0,1.92,3.28l2.26.06c2.13.06,4.27.12,6.4.2-3.19,6.72,1.34,11,4.75,14.15,2.22,2.08,4.32,4,4.66,6.39,1.25,8.58-1.53,13.61-9.28,16.8a20.25,20.25,0,0,0-7.23,4.35l-.57.6a30.51,30.51,0,0,1-3,2.95,19.2,19.2,0,0,1-1.59-1.54l-.37-.38c-1-1-3-3.12-5.44-3.12a4.39,4.39,0,0,0-3.76,2.24,10.41,10.41,0,0,1-1.66,1.73c-1.56,1.44-3.51,3.22-3.48,5.77,0,1.74.95,3.39,2.84,5,5.43,4.76,9.93,9.18,10,15.15.05,4-4.2,7.73-8.07,8.54-.86-.21-3-2.58-4.14-3.86-.89-1-1.81-2-2.7-2.86-1.15-1.08-2.23-2.22-3.37-3.43-.41-.44-.82-.88-1.24-1.31a2.25,2.25,0,0,0-1.62-.69,2.22,2.22,0,0,0-2.14,1.59l-.57,1.83c-.24.77-.48,1.55-.71,2.34-.05-.65-.09-1.31-.12-2-.27-4.58-.47-7.9-2.91-8.68-4.77-1.53-7.42-5.66-10.23-10-3.48-5.4-7.42-11.53-15.94-12.1h-.24c-4.15,0-11.53,7.81-14.51,11.17-3.17,3.56-10.46,12.33-9.93,16.83.08.65.17,1.32.27,2,.46,3.34,1,7.12-.45,8.9a4.64,4.64,0,0,1-3.44,1.39h-.23c-1.65,0-2.27-1.84-3.1-6.25a26.15,26.15,0,0,0-1.32-5.16,89.27,89.27,0,0,1-3.29-10c-1.36-4.73-2.75-9.63-5.16-14-.71-1.3-2.3-1.73-4.5-2.31-2.54-.68-6-1.61-7.53-3.84-4.92-7.29-12.19-7.39-18.6-7.48-4.44-.06-8.64-.12-11.91-2.37s-6.91-3.18-10.49-4.11c-5.56-1.46-10.36-2.71-13.09-8a2.13,2.13,0,0,0-1.85-1.1c-1,0-2.63.43-2.78,2-.64,6.85,2.33,12.75,5.64,18.11,2,3.22,4.53,3.89,6.31,3.89,2.47,0,5.17-1.24,8.06-3.7a14.49,14.49,0,0,0,1.77-1.92l.26-.31c.09.32.18.74.28,1.26.57,3,3.17,4.57,5.26,5.81,2.72,1.61,2.61,1.79,2.16,2.58-6.62,11.51-17.7,19.18-34.87,24.12a4.41,4.41,0,0,1-1.79-1.35c-2.71-9.28-7.92-17.26-13-25a145.26,145.26,0,0,1-8.84-14.8c-1.53-3.09-4.24-3.61-6-3.95-1.44-.27-2-.43-2.33-1l0-.06,0-.07a2,2,0,0,0-1.82-1.17h-.08a2,2,0,0,0-1.8,1.31l-.19.52a2,2,0,0,0,.92,2.44c1.48,3.29,2.82,6.7,4.13,10,3.7,9.37,7.53,19.06,14.63,27.11.48.54,1,1.08,1.55,1.62,1.24,1.26,2.53,2.56,2.84,3.76,2.15,8.16,6.48,12,13.62,12a45.31,45.31,0,0,0,8.2-1c1.43-.26,2.89-.54,4.29-.72-1.26,7.37-5.35,14.27-12.5,21.05-13.05,12.37-24,26.83-15.85,48.61,1.14,3.05-.27,6-4.2,8.83-5.3,3.79-12.56,9-10.38,20.1.32,1.66-.87,4.56-3.27,8-7.55,10.7-23.79,22.84-29.94,23.76A19.52,19.52,0,0,1,434.83,338Z"/><path class="cls-4" d="M571.18,26.89c.54,0,1.08,0,1.6.07,2.35.19,4.72.34,7,.48l4.76.32-.29.54c-.15.29-.29.58-.45.86a4.23,4.23,0,0,0,3.07,6.17l1,.17a31.9,31.9,0,0,0,3.31.45c4.26.28,8.59.53,12.77.77,13.7.79,27.86,1.6,41.67,3.74a24.2,24.2,0,0,0,3.81.28,61.26,61.26,0,0,0,8.25-.76,59.39,59.39,0,0,1,8.24-.77,25,25,0,0,1,3.19.19c5,.63,10.18,1.58,15.21,2.51,9.09,1.67,18.49,3.4,27.59,3.4a61.13,61.13,0,0,0,8.07-.5,38,38,0,0,1,4.82-.3c5.66,0,11,1.17,16.64,2.41,2.22.49,4.46,1,6.74,1.4a4.19,4.19,0,0,0-.58,2.12A4.26,4.26,0,0,0,749.45,54l4.17,2.79c-2.32,1.52-3.86,2.46-5.67,2.46a6.12,6.12,0,0,1-1.38-.17,4.83,4.83,0,0,0-1.08-.12c-2.62,0-5.13,2.25-6.69,4.46a7.06,7.06,0,0,0-1-4.85c-1.55-2.84-3.29-4.21-5.34-4.22l-.31,0-1.1.07c-7.65.54-13.17.93-14.09,5.3-.86,4.14-2.05,4.14-2.44,4.14a15.67,15.67,0,0,1-4.67-1.36,23.76,23.76,0,0,0-4.5-1.44,20.39,20.39,0,0,0-3.5-.31c-5.28,0-9.65,2.32-13,6.91-2.54,3.49-3.5,10.35-1,14.3,1.58,2.48,4.8,3.63,10.11,3.63,1,0,2,0,3-.12a8.06,8.06,0,0,1,.85,0,8.67,8.67,0,0,1,8.58,7.47c.09,1.11.27,2.27.46,3.5.49,3.12,1.09,7-.3,8.7-1,1.25-3.42,1.6-5.24,1.68a6.39,6.39,0,0,0-4.31,2.29A5.36,5.36,0,0,0,699.5,113a9.22,9.22,0,0,1-.88,2,14.77,14.77,0,0,0-1.65,4.66,9.51,9.51,0,0,0-4.6-1.1,12.54,12.54,0,0,0-2.32.22,17.57,17.57,0,0,1-1-2.16c-.15-.33-.29-.67-.44-1a4.23,4.23,0,0,0-6.46-1.61q-.55.42-1.2.87a16.93,16.93,0,0,0-4.16,3.74,37.72,37.72,0,0,0-3.36,5.89c-.32.64-.64,1.29-1,1.92a4.25,4.25,0,0,0,3.64,6.2l2.28.06,3.63.11c-1.53,6.47,3.14,10.85,6.19,13.7,2,1.83,3.81,3.57,4.05,5.22,1.12,7.7-1.14,11.81-8.06,14.66a22.17,22.17,0,0,0-7.92,4.82l-.57.6c-.53.55-1.06,1.12-1.52,1.59l-.19-.19-.36-.38c-1.18-1.21-3.63-3.73-6.88-3.73a6.35,6.35,0,0,0-5.43,3.15,11.3,11.3,0,0,1-1.35,1.35c-1.65,1.52-4.16,3.82-4.12,7.26,0,2.31,1.21,4.5,3.52,6.52,5.06,4.44,9.26,8.53,9.32,13.67,0,2.72-2.92,5.46-5.76,6.37a32,32,0,0,1-2.95-3.05c-.93-1-1.88-2.09-2.83-3-1.11-1-2.16-2.15-3.28-3.34-.42-.44-.83-.89-1.26-1.33a4.24,4.24,0,0,0-3.05-1.3h0a4.18,4.18,0,0,0-2,.52c-.47-2.59-1.45-4.55-3.8-5.31-4.08-1.3-6.44-5-9.16-9.2-3.55-5.52-8-12.38-17.48-13h-.38c-4.54,0-11.21,6.44-16,11.84-5.07,5.71-11,13.54-10.41,18.4.08.66.17,1.34.27,2,.34,2.5.87,6.27,0,7.37a3.07,3.07,0,0,1-2,.65,18.43,18.43,0,0,1-1.24-4.61,28.2,28.2,0,0,0-1.45-5.56,87.6,87.6,0,0,1-3.21-9.82c-1.38-4.84-2.81-9.84-5.32-14.43-1.13-2-3.26-2.62-5.74-3.29-2.24-.59-5.31-1.41-6.39-3-5.51-8.16-13.67-8.27-20.23-8.36-4.31-.06-8-.11-10.81-2-3.49-2.4-7.37-3.42-11.12-4.4-5.88-1.54-9.6-2.7-11.81-7a4,4,0,0,0-3.63-2.19c-2.59,0-4.55,1.58-4.77,3.84-.7,7.44,2.43,13.7,5.92,19.35a9.33,9.33,0,0,0,8,4.84c2.91,0,6-1.36,9.2-4,1.3,2.46,3.7,3.88,5.41,4.9.3.17.68.4,1,.61C526,184,515.67,191.05,499.86,195.73l-.23-.17c-2.85-9.43-8.05-17.39-13.08-25.1a139.68,139.68,0,0,1-8.73-14.58c-2-4-5.53-4.67-7.45-5-.32-.07-.78-.15-1.05-.23a4.11,4.11,0,0,0-1-1.26,15,15,0,0,0,3.79-3.38c2.26-2.77,2.81-6.36,3.29-9.53.18-1.16.34-2.25.58-3.23a4.22,4.22,0,0,0-3.6-5.18c-1-.13-2-.29-3.13-.46a46.69,46.69,0,0,0-7.51-.78c-.35,0-.69,0-1,0-.65,0-1.26,0-1.82,0-3.39,0-5.55-.52-6.44-1.54-1-1.21-.92-3.76-.64-5.69a4.75,4.75,0,0,0-1.29-3.89,5.43,5.43,0,0,0-4-2.09,4.23,4.23,0,0,0-1.41.25c-2.36.86-4.69,1.82-6.94,2.76l-1.5.62a4.25,4.25,0,0,0-2.42,2.64l-.24-.59c-.4-1-.8-2-1.26-3-3.4-7.09-9.45-10.31-14.79-13.14-1.33-.71-2.6-1.38-3.82-2.1a4.22,4.22,0,0,0-6.36,3.17c0,.22-.07.45-.11.68-.07.39-.14.86-.19,1.38a12,12,0,0,0-5.12-1.25,9.08,9.08,0,0,0-.91,0c-11.9,1.13-20.78,7.16-23.76,16.1a7.61,7.61,0,0,1-7.5,5.56l-.85,0c-1.83,0-4.22-.28-5.25-1.6-1.89-2.4-.36-8.67.14-10.73a5,5,0,0,1,.25-.77,16.54,16.54,0,0,1,2.7.79,25.81,25.81,0,0,0,3.53,1,11.29,11.29,0,0,0,2.24.21c2.84,0,6.52-.88,8.36-3.35a9.2,9.2,0,0,0-.18-11.2,4.12,4.12,0,0,0,1.55-3c.08-1.5.2-1.78,3.75-2.79,2.63-.76,6.24-1.79,8.41-5.23.59-.92,2.6-2.49,6-4.66a11.84,11.84,0,0,1,6.8-1.78,48.15,48.15,0,0,1,5.33.41,55.72,55.72,0,0,0,6,.43,17.89,17.89,0,0,0,8.87-2l1.43-.75c3.72-1.92,9-4.68,10.55-10.67H440a9.54,9.54,0,0,0,7-3.25c2.16-2.26,1-5.84,1-5.88a4.07,4.07,0,0,0-3.3-2.64c-1.06-.13-2.11-.21-3.12-.29-1.38-.1-2.67-.2-3.9-.41a9.13,9.13,0,0,1-1.09-.25c.41-1,.89-2.1,1.39-3.21.23-.52.47-1,.7-1.55A4.26,4.26,0,0,0,436.27,48l-.43-.18A7.35,7.35,0,0,0,432.9,47a4.59,4.59,0,0,0-2.44.69c-.62.39-1.31.78-2,1.19-2.7,1.54-5.77,3.27-7.45,6.32-1.31,2.36-1,5-.78,7.15a13.38,13.38,0,0,1,.15,2.3A37.79,37.79,0,0,0,418.52,68a29.07,29.07,0,0,1-2.3,4,17.28,17.28,0,0,1-2.89-4c-2.25-4-6.4-4.36-9.15-4.61a11.55,11.55,0,0,1-2.61-.42,3.24,3.24,0,0,1-.16-1,1,1,0,0,1,0-.16,14.84,14.84,0,0,1,1.5-.57c2.11-.72,5.29-1.81,7.22-5.24,4.78-8.5,17.77-14.67,30.88-14.67a33.13,33.13,0,0,1,12.06,2.1,4.24,4.24,0,0,0-3.36,5.51c0,.1.06.21.1.32A5.25,5.25,0,0,0,453,53.12a12.17,12.17,0,0,1,1.66,1.73c1.51,1.77,3.58,4.19,6.78,4.19a7,7,0,0,0,5.24-2.58c5.87-6.39,13.69-7.78,22-9.25a72.12,72.12,0,0,0,14.62-3.66,22.48,22.48,0,0,1,3.28,1.66,25.73,25.73,0,0,0,6,2.76,7,7,0,0,0,1.73.22,13.12,13.12,0,0,0,5.2-1.4c.53-.22,1-.44,1.46-.58a4.29,4.29,0,0,0,1.88-1.29,16.47,16.47,0,0,0,1,2.41,4.2,4.2,0,0,0,3.85,2.29,13.61,13.61,0,0,0,3.21-.58l1.15-.28a4.22,4.22,0,0,0,2.76-2,4.06,4.06,0,0,0,.53-1.57,4.61,4.61,0,0,0,1.18-.27,6.57,6.57,0,0,0,4.06-3.82,8.61,8.61,0,0,0-.57-6.55c6-.13,11.43-2.13,16.64-4.06,5-1.84,9.63-3.58,14.5-3.58M503.72,43.38h0M401.42,61.53h0m335.84,5a5.56,5.56,0,0,0,.51,4.45,6.52,6.52,0,0,0,4.77,2.79l.48.09c2.17,1.62,2.43,3.3,2,6.89-1-1-1.94-1.94-2.92-2.89-5.14-5-6.47-7.78-4.88-11.33m-372.65,47h0m339.85,16.16.15.06a20.25,20.25,0,0,1,2.56,1.26,8.74,8.74,0,0,1-.79,1.08A6.47,6.47,0,0,0,705,130.2a4.18,4.18,0,0,1-.51-.57m-302.07,4a9.85,9.85,0,0,0,.47,6.71c2,4.28,6.92,5.75,11.37,6.79A14.76,14.76,0,0,1,418,149a28.52,28.52,0,0,0,4.24,2.26l.51.21a14.76,14.76,0,0,0,5.56,1.42c1.88,0,5.31-.67,7.16-5.15a10.77,10.77,0,0,1,.68-1.42c.36.27.77.6,1.09.86,1.78,1.44,4,3.23,7,3.23a6.85,6.85,0,0,0,2-.3,7.53,7.53,0,0,1,2.12-.27,30.08,30.08,0,0,1,5.35.72,36.18,36.18,0,0,0,6.92.87c.44,0,.88,0,1.3,0l-.1.28a4,4,0,0,0,1.2,4.44c1.37,3.09,2.64,6.31,3.87,9.43,3.76,9.53,7.65,19.39,15,27.7.53.6,1.09,1.17,1.63,1.71a10.68,10.68,0,0,1,2.33,2.86c2.35,8.93,7.58,13.45,15.55,13.45a47.47,47.47,0,0,0,8.57-1.06l1.32-.25c-1.66,5.92-5.37,11.56-11.27,17.15-12.9,12.24-24.93,27.84-16.36,50.77.29.78,1.19,3.17-3.48,6.5-5.42,3.87-13.61,9.73-11.19,22.11,0,.08.31,1.83-2.93,6.42C458.94,323,443.17,335,437.44,335.81a18.24,18.24,0,0,1-2.61.22c-4.27,0-5-1.66-6-8.17-.52-3.31-1.06-6.73-3.08-9.44-6.28-8.43-11.74-22-9.5-30.63,5.15-19.79,2.71-33.88-8.2-46.81.11-.34.24-.71.34-1a19.6,19.6,0,0,0,1-3.83c.53-4.11-1-8.42-4.23-12.12a26.78,26.78,0,0,0-19.29-8.73,19.78,19.78,0,0,0-6.76,1.14c-6.78,2.45-11.92,3.59-16.19,3.59-5.55,0-12.73-1.62-19.07-14.22-7-13.94-7-34.51,5.1-44.81,3.89-3.31,6.32-7.27,8.66-11.11,2.24-3.64,4.35-7.09,7.58-9.64,1.66-1.32,3-1.39,5.13-1.49a20.73,20.73,0,0,0,3.92-.47c7-1.71,14.44-2.76,21.62-3.77,2.14-.3,4.34-.61,6.53-.94m34.26,12h0m92.24,19.15h0m-13.32,44.52h0M571.18,22.89c-11.17,0-20.61,7.65-31.76,7.65h-.26c-3.68,0-4.88,1.51-3.11,4.94,1.14,2.2,1.82,4.66-.89,5.67a.46.46,0,0,1-.21,0c-1,0-2.89-2-4.09-3.29A23.45,23.45,0,0,1,528.33,34c.4,1.55.75,3.11,1.2,4.64.59,2,1.24,3.92,1.87,5.88a.24.24,0,0,1-.17.3,29.38,29.38,0,0,1-3.51.77c-.15,0-.25,0-.28-.09a25,25,0,0,1-1.77-5.93c-.79-3.67-2.47-6.66-6.33-7.58a6.05,6.05,0,0,0-1.48-.16c-1,0-2.11.17-3.17.24a.23.23,0,0,0-.2.33c1,2.36,2,4.76,3.22,7.06A13.62,13.62,0,0,0,519.82,42a.23.23,0,0,1-.11.38c-1.79.62-3.72,1.77-5.36,1.77a2.92,2.92,0,0,1-.73-.09c-3.58-.92-7.72-4.59-10.48-4.59a2.3,2.3,0,0,0-.95.18c-12.58,5.22-27.88,2.55-38.44,14.07A3.2,3.2,0,0,1,461.46,55c-2.56,0-4.45-4.86-7.18-5.71-.4-.13-.56-1-.78-1.7a.24.24,0,0,1,.21-.31c1.7-.09,3.42-.32,5.1-.32a14.21,14.21,0,0,1,2.07.14,13.59,13.59,0,0,0,2.1.23,2.6,2.6,0,0,0,2.79-1.94c.89-2.61-1.65-2.28-3-2.8-2.35-.91-4.86-1.48-7.15-2.51A36,36,0,0,0,441,37.27c-13.6,0-28.43,6.15-34.37,16.71-2.64,4.7-9.46,2.33-9.22,8.09.34,8.28,9.6,2.86,12.44,7.87,2.66,4.7,4.76,6.4,6.49,6.4,3.36,0,5.36-6.4,7.46-9.64,1.52-2.33-.73-7,.67-9.53,1.49-2.7,5.23-4.23,8.12-6.06a.62.62,0,0,1,.31-.07,7.91,7.91,0,0,1,2,.69.24.24,0,0,1,.15.32c-.86,2-1.8,3.86-2.5,5.86-.34,1-.58,2.72-.15,3A12.43,12.43,0,0,0,437,62.62c2.38.41,4.81.44,7.21.73,0,0,.22,1.44-.11,1.78a5.63,5.63,0,0,1-4.08,2,5.83,5.83,0,0,1-3.07-1h0s-.77.82-.76,1.24c.12,7-5.92,9.25-10.3,11.63a14.25,14.25,0,0,1-7,1.56c-3.67,0-7.5-.84-11.32-.84a16,16,0,0,0-9,2.41c-2.68,1.73-5.95,3.94-7.19,5.89-3.22,5.1-12.31,2-12.78,9.92,0,.24-.83.56-1.31.63-1.23.17-2.48.26-3.72.37a.24.24,0,0,0-.14.42c1,.88,1.95,1.78,2.95,2.64,2.67,2.26,3.51,5.47,1.64,8-.85,1.14-3.17,1.74-5.15,1.74a8.49,8.49,0,0,1-1.48-.13c-2.35-.46-5-1.92-7.25-1.92-1.73,0-3.15.89-3.87,3.84-1.94,7.91-2.92,17.28,9,17.28l1,0a11.62,11.62,0,0,0,11.12-8.29c3.08-9.23,12.76-12.67,20.35-13.39a4.71,4.71,0,0,1,.53,0c5.16,0,11.15,7,16.45,11.06,4.44,3.44-.62,2.5-2.83,4-.47.33-1.06,1.27-1.73,1.31.2.31.8,1.86,1.08,1.95h.1c1.23,0,8.72-3,9.42-3.21,3.64-1-4.44-3.2-.16-3.56a.24.24,0,0,0,.13-.42c-2.49-2.25-5-4.48-7.45-6.75a49.1,49.1,0,0,1-5.67-5.49c-.53-.67-.09-2.11.05-3.31a.24.24,0,0,1,.23-.22.28.28,0,0,1,.12,0c6.28,3.71,13.47,6.08,17,13.53,2,4.13,3.22,10.32,8.26,10.73h.17c2.5,0,3.07-4.6.54-7.49a.24.24,0,0,1,.08-.38c2.76-1.14,5.49-2.31,8.29-3.32h0c.32,0,1.36,1,1.3,1.4-1.42,9.66,3.64,11.81,11,11.81.65,0,1.31,0,2-.05h.87c3.36,0,6.76.79,10.15,1.21a.23.23,0,0,1,.2.28c-.91,3.81-.85,8.42-3.08,11.16a10,10,0,0,1-8.35,4c-4,0-8.29-1.59-12.27-1.59a11.23,11.23,0,0,0-3.27.45,3.24,3.24,0,0,1-.86.12c-3,0-5.76-4.51-8.46-4.51-1.33,0-2.65,1.08-4,4.32-.84,2-2.08,2.67-3.46,2.67a13.47,13.47,0,0,1-4.58-1.34c-3-1.2-5.57-3.63-8.6-4.34-6.81-1.59-11.76-3.64-7.57-12,.66-1.32.08-2.17-1.38-2.17a5.4,5.4,0,0,0-.77.06c-10.72,1.74-21.61,2.78-32.13,5.34-3.27.8-6.67-.38-10.58,2.71-7.36,5.81-9.32,14.87-16.35,20.84-13.71,11.65-13.84,34.23-6.09,49.65C346.41,219.81,354,224,362.92,224c5.4,0,11.26-1.55,17.55-3.82a15.63,15.63,0,0,1,5.4-.91c9.91,0,20.62,8.1,19.56,16.34-.31,2.37-2.31,5.82-1.38,6.86,11.75,13.25,12.86,26.79,8.3,44.28-2.63,10.07,3.34,24.87,10.16,34,4.2,5.63-.05,19.22,12.32,19.22a22.51,22.51,0,0,0,3.2-.26c9.86-1.47,36.71-24.74,34.88-34.09s3.57-13.79,9.58-18.08c4.13-3,6.56-6.76,4.91-11.16C480,256.61,489,243,502.76,230c6.28-6,11.79-13.4,13.19-22.8.23-1.56.08-1.91-.54-1.91-.32,0-.77.1-1.36.17-4.18.5-8.64,1.79-12.66,1.79-5.09,0-9.48-2.07-11.68-10.47-.61-2.33-3.09-4.22-4.83-6.2-9.66-10.94-13.05-25-19-37.81l-.13-.26-.19.52c.06-.18.12-.35.19-.53h0l.12.27c1.73,3.15,6.31.79,8.34,4.9,6.64,13.46,17.37,24.7,21.7,39.52a5.32,5.32,0,0,0,3.76,2.73,1.09,1.09,0,0,0,.26,0c14.9-4.26,28.33-11.31,36.26-25.12,2.79-4.84-6.28-5-7.18-9.75-.53-2.78-1.14-3.73-1.83-3.73-1.1,0-2.37,2.37-3.75,3.55-2.05,1.74-4.48,3.22-6.76,3.22-1.69,0-3.3-.81-4.61-2.94-3.07-5-6-10.52-5.35-16.88,0-.08.58-.21.79-.21,0,0,.07,0,.07,0,5.07,9.88,16.6,7.61,24.22,12.87,8.89,6.12,22.46-1.84,30,9.32,3,4.51,11.11,4.5,11.93,6,4,7.29,5.09,16.09,8.35,23.88,1.83,4.35,1.12,12.63,6.27,12.63l.37,0c8.27-.61,6.19-8.51,5.47-14.51-.64-5.38,17.44-25.77,22.45-25.77h.11c13.86.93,13.78,18.23,25.69,22,1.76.57,1.24,7.91,2,12.07a39.82,39.82,0,0,0,1.61,5.37.23.23,0,0,0,.23.16.24.24,0,0,0,.24-.21,46.16,46.16,0,0,1,.69-5.13c.54-2.4,1.35-4.75,2.06-7.11a.23.23,0,0,1,.23-.17.22.22,0,0,1,.17.07c1.56,1.62,3.06,3.29,4.69,4.82,2.71,2.53,6,7.26,8.22,7.26l.3,0c4.81-1,9.82-5.46,9.76-10.54-.08-7-5.46-12.06-10.69-16.64-5.39-4.72.85-7.13,2.67-9.94a2.46,2.46,0,0,1,2.08-1.33c1.48,0,3,1.51,4,2.52,1.64,1.68,2.46,2.61,3.36,2.61,1.07,0,2.25-1.32,5-4.26,1.68-1.78,4.2-2.92,6.54-3.88,8.62-3.55,11.88-9.42,10.5-18.94-1.16-8-15.94-10.65-8.3-21.57a.23.23,0,0,0-.14-.37,9.67,9.67,0,0,0-1.58-.27c-3.32-.12-6.65-.21-10-.3a.24.24,0,0,1-.21-.35,55.35,55.35,0,0,1,4-7.3c1.13-1.55,3-2.58,4.57-3.81a.3.3,0,0,1,.15,0,.24.24,0,0,1,.22.14,30.27,30.27,0,0,0,1.78,3.72c.54.86,1.66,2.25,2.15,2.25l.07,0a10.81,10.81,0,0,1,3.44-.65c6,0,6.39,7.44,9.94,10.59,1,.91,1.27,3.5,2.09,3.6a3.59,3.59,0,0,0,.47,0,6.08,6.08,0,0,0,4.06-1.64c6.38-6.88-1.5-8.25-4.76-10.11-7.22-4.1-.39-8.25-.68-12.28,0-.64,1.28-2,2-2,13.75-.57,9.39-12.06,8.91-18.18a12.71,12.71,0,0,0-12.57-11.16c-.39,0-.79,0-1.19,0-.8.07-1.73.11-2.67.11-2.82,0-5.85-.4-6.74-1.78-1.45-2.28-.91-7.4.83-9.79,2.28-3.13,5.28-5.27,9.76-5.27a16.84,16.84,0,0,1,2.82.25c2.71.47,6.53,2.86,9.85,2.86,2.75,0,5.17-1.63,6.36-7.32.32-1.55,7.51-1.91,11.56-2.2h0c.78,0,2.86,3.54,2.43,4.2-5,7.79-.8,13,4.47,18.14,2.77,2.69,5.43,5.48,8.18,8.19a.29.29,0,0,0,.19,0,2.8,2.8,0,0,0,.77-.16c-.65-6.23,3.7-13.42-3.42-18.39-1.41-1-4.8-.14-3.9-3,.55-1.76,3.09-4.39,4.32-4.39h.17a9.94,9.94,0,0,0,2.29.28c4.09,0,7-2.72,10.29-4.65l0,0c.1-1.49.12-1.86.22-3.34l-6.81-4.57a.24.24,0,0,1,0-.4,12.39,12.39,0,0,1,6.87-2.35,11,11,0,0,1,4,.78,36.43,36.43,0,0,0,7.67,1.5h0a.23.23,0,0,0,.13-.43c-2.61-1.81-5.3-4.48-7.75-4.48h-.29c-1.14.1-2.26.15-3.38.15-11.49,0-22.14-4.93-34.19-4.93a40.64,40.64,0,0,0-5.34.34,59,59,0,0,1-7.55.46c-13.72,0-28.25-4.11-42.3-5.88a30.94,30.94,0,0,0-3.69-.22c-5.87,0-11.35,1.53-16.49,1.53a21.24,21.24,0,0,1-3.2-.23C628,33.68,609.69,33.17,591.42,32c-1.31-.09-2.6-.36-3.9-.57a.24.24,0,0,1-.17-.35c.65-1.23,1.26-2.48,2-3.66A12.71,12.71,0,0,1,591,25.55a.24.24,0,0,0-.07-.38,7.86,7.86,0,0,0-2.6-1.12c-5.06-.45-10.13-.67-15.19-1.08-.65,0-1.3-.08-1.93-.08Z"/><path class="cls-3" d="M747.25,350.54c-4,0-6.71-.93-8.18-2.75-1.64-2.05-1.93-5.52-.86-10.34a3.2,3.2,0,0,0-.54-2.36c0-.08-.1-.16-.14-.24a2,2,0,0,0-1.18-1.09,2.24,2.24,0,0,0-.67-.11,2,2,0,0,0-.93.23c-.58.31-1.12.64-1.63,1a6.4,6.4,0,0,1-2.66,1.2c-.88,0-2.08-.88-3.57-2.62a12.08,12.08,0,0,0-9.55-4.67c-3.72,0-7.42,1.55-11,3a36.07,36.07,0,0,1-7.47,2.54c-2.58.45-5.13,1.15-7.6,1.82a50.9,50.9,0,0,1-10.5,2.11,4.46,4.46,0,0,0,1.19-2.95c-.19-4.4,0-8.95.22-13.34.14-3.16.29-6.43.29-9.66,0-7.7,4.69-9.05,10.62-10.76a38.42,38.42,0,0,0,6.16-2.15l1-.47c3.15-1.49,6.67-3.16,8.17-7.16,3.09-.23,4.75-3.15,6.1-5.52,1.23-2.16,2.18-3.69,3.28-3.69.52,0,1.74.31,3.92,2.33a5.82,5.82,0,0,0,3.87,1.87c3,0,4-3.17,4.75-5.26a10.52,10.52,0,0,1,.61-1.59,10.71,10.71,0,0,1,8.47-3.52,31.09,31.09,0,0,1,3.28.2,9.46,9.46,0,0,0-.87,7.71c1.39,3.9,5.54,6,8.78,7.11a9.08,9.08,0,0,0,2.91.53c4.68,0,6.3-4.38,7.49-7.57a22.16,22.16,0,0,1,1.21-2.87,12.34,12.34,0,0,0,1.06-2.73c.41.77.78,1.53,1.11,2.32.8,1.9,1.45,3.91,2.44,7,.54,1.65,1.17,3.59,2,6a1.94,1.94,0,0,0,.58.86,13.81,13.81,0,0,1,1.79,3.32,30.3,30.3,0,0,0,6.66,10.27c6.06,5.75,1.18,15.06-1.2,18.79-7,10.94-14.92,18.2-24.31,22.19a12.59,12.59,0,0,1-4.59,1.08Z"/><path class="cls-4" d="M739.4,278.39h.43a10.55,10.55,0,0,0,.1,6.58c1.32,3.68,4.79,6.57,10,8.34a11.32,11.32,0,0,0,3.54.63c6.08,0,8.14-5.56,9.37-8.87.16-.41.3-.81.45-1.18.48,1.32,1,2.83,1.6,4.77.55,1.68,1.17,3.6,2,6a3.89,3.89,0,0,0,1.09,1.67,18.43,18.43,0,0,1,1.34,2.69,32.19,32.19,0,0,0,7.12,10.9c5,4.73.6,12.95-1.52,16.27-6.74,10.58-14.4,17.59-23.41,21.42a10.63,10.63,0,0,1-3.83.92h-.44c-2.29,0-5.29-.35-6.62-2s-1.39-4.52-.47-8.65a5.15,5.15,0,0,0-.76-3.8l-.06-.11a4,4,0,0,0-2.33-2.12,3.92,3.92,0,0,0-1.31-.22,4,4,0,0,0-1.9.48c-.65.35-1.22.7-1.73,1a13.11,13.11,0,0,1-1.58.88,7.56,7.56,0,0,1-2.08-1.9,14.17,14.17,0,0,0-11.07-5.37c-4.12,0-8,1.63-11.77,3.2a35.16,35.16,0,0,1-7,2.41c-2.67.47-5.27,1.17-7.79,1.86-2.34.64-4.6,1.25-6.79,1.65a4.56,4.56,0,0,0,0-.64c-.19-4.32,0-8.62.21-13.17.15-3.18.3-6.47.3-9.75,0-5.94,2.82-7,9.18-8.84a40.82,40.82,0,0,0,6.47-2.27l1-.46c2.92-1.39,6.72-3.19,8.71-7.18,3.34-.87,5.17-4.09,6.44-6.32a16.53,16.53,0,0,1,1.69-2.62,8.72,8.72,0,0,1,2.42,1.74,7.69,7.69,0,0,0,5.22,2.4c4.43,0,5.93-4.48,6.65-6.63.1-.32.26-.78.36-1.05a8.65,8.65,0,0,1,6.81-2.69m-6.73,2.53h0m-14.55,3.56h0m44.28-11.33c-.62,2.48-.76,5.22-1.95,7.38-1.87,3.42-2.44,9.41-7,9.41a7,7,0,0,1-2.26-.42c-5.06-1.71-10.86-5.56-6.15-13.1.11-.18-1.08-1.69-1.76-1.77a35.83,35.83,0,0,0-3.93-.26,12.64,12.64,0,0,0-9.95,4.19c-1.11,1.16-1.47,6.18-3.87,6.18a4,4,0,0,1-2.51-1.34c-2.23-2.06-3.92-2.86-5.28-2.86-4.63,0-5.36,9.22-9.76,9.22a3.67,3.67,0,0,1-1.09-.17c-.91,4.75-4.79,6.17-8.56,8-7.1,3.44-17.88,2.41-17.9,14.71,0,7.7-.84,15.42-.5,23.09.08,1.93-5.35,4.83-.56,4.88h.26c6.49,0,13-2.84,19.54-4,5.94-1,12.25-5.56,18.12-5.56a10.15,10.15,0,0,1,8,4c2.13,2.48,3.69,3.32,5.09,3.32,1.74,0,3.23-1.32,5.24-2.4.2.46.64,1,.56,1.38-2.11,9.47.44,15.52,11,15.52h.51a14.56,14.56,0,0,0,5.33-1.24c11-4.7,19.08-13.33,25.22-23,3.83-6,7.27-15.27.89-21.32-5.39-5.11-6.41-11.79-8.51-13.64-2.31-6.84-3.19-10-4.46-13.07-1-2.48-2.54-4.78-3.83-7.16Z"/><path class="cls-3" d="M236.25,53a24.05,24.05,0,0,0,3.89-3,7.56,7.56,0,0,0,2.33-6.42,10,10,0,0,0-4.32-6.86c-3.15-1.91-7-2.24-10.77-2.55-1.17-.1-2.28-.19-3.35-.33l-.41,0a4.3,4.3,0,0,0-1.91.51c-.12-.24-.26-.49-.35-.7a7.39,7.39,0,0,1,2.08-1.94,30.8,30.8,0,0,0,6.41.55l2.18,0,2.13,0c4.24,0,7.47.43,10.45,2.61A16.23,16.23,0,0,1,250.9,44a3,3,0,0,0-1.61.85c-1.1,1.13-1.06,2.76-1,4.33a12.1,12.1,0,0,1-.06,1.93,4.33,4.33,0,0,1-1.08-.23,4,4,0,0,0-1.26-.24,2.33,2.33,0,0,0-2,1c-.75,1.11-.28,2.27.13,3.3.19.46.68,1.7.51,2,0,.05-.14.16-.42.29Z"/><path class="cls-4" d="M238.05,34.35a11.39,11.39,0,0,1,5.39,2,14,14,0,0,1,5,6.53,4.31,4.31,0,0,0-.6.52,6.93,6.93,0,0,0-1.6,5.21l-.38,0a4.38,4.38,0,0,0-3,1.13,9.36,9.36,0,0,0,1.56-6.44A12,12,0,0,0,239.19,35a12.47,12.47,0,0,0-1.14-.61m4,16.52a4.27,4.27,0,0,0-.45,2.69L240,52.72a17.43,17.43,0,0,0,1.52-1.36c.17-.16.32-.32.47-.49M223.41,29.6c-1.21,0-3.23,2-4.07,3.41-.45.78,1,2.65,1.56,4,.9-.42,1.86-1.28,2.72-1.28h.15c4.55.59,9.7.4,13.34,2.61,2.13,1.3,5.55,6.22,1.62,10.15-1.83,1.82-4.23,3.07-6.36,4.58l11.56,6.28c5.68-1.37.2-6.79,1.95-6.79a2.32,2.32,0,0,1,.64.14,5.83,5.83,0,0,0,1.76.33c3.91,0,.35-7.17,3.25-7.17a4.72,4.72,0,0,1,2,.62c-.85-5.45-3.05-10-7.7-13.39-3.63-2.65-7.61-3-11.63-3-1.44,0-2.88,0-4.31,0a27.49,27.49,0,0,1-6.22-.56.78.78,0,0,0-.22,0Z"/><path class="cls-3" d="M364.9,90.6a12.43,12.43,0,0,0,2.14.2,5.59,5.59,0,0,0,4.56-2.14,7.15,7.15,0,0,0,1.28-5.72,13.16,13.16,0,0,0-2.8-5.06l.89.88c2.11,2,3.94,3.81,4.37,6.54a9.73,9.73,0,0,1-.95,6,2.57,2.57,0,0,0-.79-.12,4.23,4.23,0,0,0-3,1.74l-.25.25a2.34,2.34,0,0,0-2.09-1.37,2.69,2.69,0,0,0-2.38,2l0,0Z"/><path class="cls-4" d="M366.77,72.66a6.19,6.19,0,0,0-1.5.17c-.56.15-.76,1.66-1.13,2.56.65.23,1.54.27,1.89.73,1.81,2.35,4.26,4.62,4.91,7.3.38,1.56-.3,5.38-3.9,5.38h0a29.79,29.79,0,0,1-5-.82c.84,2.87,1.69,5.74,2.41,8.16a2.69,2.69,0,0,0,1.36.47c1.71,0,1.94-2.77,2.47-2.77.11,0,.24.13.4.45.51,1,1,1.35,1.49,1.35,1.25,0,2.42-2.42,3.43-2.42.39,0,.77.37,1.11,1.41a12.38,12.38,0,0,0,2.6-9.64c-.85-5.4-5.95-7.63-8.53-11.75-.26-.41-1.13-.58-2-.58Z"/><path class="cls-2" d="M745.68,136.52c-.39-2.33-5.4,6.5-8.13,3.38,0-2.54,4.77-5.74,4.82-8.75,1.51.78,2-2.87,3.56-2.36,3.45,1.08,3.7,1.6,3.81,0,.18-2.77-2.49-14.68-3.52-17.48-.2-.54-1.05-.85-1.59-1.27.62-.75,1.27-2.14,1.85-2.11,1.15,0,3,.69,3.25,1.45,1.23,4.72,6.46,17.4,5.65,22.83Z"/><path class="cls-2" d="M360.8,82.85c-.39-2.33-5.4,6.5-8.13,3.38,0-2.54,4.77-5.75,4.82-8.75Z"/><path class="cls-3" d="M685.12,246.63c-2.32,0-7.72-.85-7.83-8.71a3.14,3.14,0,0,1,.41-.7h.36c4.47,0,5.75-3.38,6.68-5.86s1.5-3.74,3.46-4.18c4-.91,6.82-1.66,8.71-2.29-.17,1.7-.28,3.36-.39,5-.61,9-1.28,14.12-7.85,16.18A12,12,0,0,1,685.12,246.63Z"/><path class="cls-4" d="M694.67,227.65c-.06.71-.1,1.4-.15,2.1-.62,9.18-1.34,12.81-6.45,14.41a10,10,0,0,1-3,.47c-2.41,0-5.25-1-5.75-5.49,4.82-.63,6.38-4.77,7.25-7.07s1.22-2.76,2-2.94c2.39-.54,4.38-1,6-1.48M679.32,238.4h0m20-16.93h0v0s0,0,0,0Zm0,0c-.08.21-1,1.34-11.61,3.73-6.3,1.41-3.6,10-9.7,10a6.85,6.85,0,0,1-.88-.06h0c-.57,0-1.87,1.75-1.86,2.65.06,7.58,4.67,10.81,9.83,10.81a13.92,13.92,0,0,0,4.15-.65c10.88-3.41,8.16-14.67,10.1-26.48Z"/><path class="cls-3" d="M498.38,311.41a.67.67,0,0,1-.28,0c-1.26-.33-1.78-2.59-1.4-5.86,3.37-2.32,3.33-6.45,3.29-10.13-.06-5.5.2-8.94,6-10.4,2.1-.54,3.61-2.21,5-3.94a20.52,20.52,0,0,1-.9,6.53c-.17.71-.34,1.42-.5,2.12a36.39,36.39,0,0,1-3.08,8c-1.81,3.8-3.67,7.72-3.88,12.38A10.3,10.3,0,0,1,498.38,311.41Z"/><path class="cls-4" d="M508.38,286.16c-.07.3-.15.62-.23.95-.18.72-.36,1.45-.51,2.17a35.87,35.87,0,0,1-2.93,7.52c-1.67,3.5-3.53,7.4-4,12a9.74,9.74,0,0,1-1.92.59,7.46,7.46,0,0,1-.19-2.78c3.47-3,3.42-7.66,3.38-11.22-.05-5.41.15-7.34,4.47-8.44a8.09,8.09,0,0,0,1.92-.76m3.44-9.18c-2.1,2.09-3.88,5.44-6.35,6.07-13.29,3.37-3.12,17.49-10.62,21.25-.78,4.91.08,8.3,2.73,9a3.2,3.2,0,0,0,.8.09c2.33,0,6.22-1.78,6.23-2.64.07-7.77,5.41-13.57,6.94-20.65.93-4.3,2.67-8.72.27-13.14Z"/><path class="cls-3" d="M164.85,38.94a6,6,0,0,1-.86,0c-1.2-.16-1.26-.35-1.52-2.06a6.23,6.23,0,0,0-2-4.34,3.59,3.59,0,0,0-2.32-.64c-.68,0-1.46.08-2.3.15l-.31,0c.44-.37,1-.8,1.66-1.32a7.35,7.35,0,0,1,4.45-1.5,8.87,8.87,0,0,1,6.53,3.13A8.56,8.56,0,0,0,175,35.28c.8,0,1.58-.06,2.33-.13s1.36-.11,2-.11a7.78,7.78,0,0,1,1.13.07,3.08,3.08,0,0,0,.61,0A7.93,7.93,0,0,0,185,33.7l.62-.37a3.73,3.73,0,0,1-.17,2.65c-.73,1.21-3.08,1.74-5.35,2.25-.73.16-1.47.33-2.2.53a8.51,8.51,0,0,0-4.42-1.16,20.32,20.32,0,0,0-4.64.71A17.59,17.59,0,0,1,164.85,38.94Z"/><path class="cls-4" d="M162.06,31.23a7.05,7.05,0,0,1,4.61,2.44,10.62,10.62,0,0,0,3,2.39c-.46.1-.91.2-1.34.31a16.93,16.93,0,0,1-3.49.57h-.34c0-.14,0-.28-.06-.39a8.36,8.36,0,0,0-2.39-5.31M186.9,34.9h0m-25.27-7.69A9.28,9.28,0,0,0,156,29.12c-5.6,4.23-4.67,5-2.38,5,1.4,0,3.32-.3,4.53-.3a1.88,1.88,0,0,1,1.07.2c2.35,1.88-.06,6.23,4.54,6.82a8.27,8.27,0,0,0,1.11.07c2.93,0,5.81-1.34,8.59-1.34a6.61,6.61,0,0,1,4.09,1.33c4.87-1.54,11.86-1.22,9.84-8.69-.24-.91-.66-1.23-1.18-1.23-1.35,0-3.42,2.15-5.15,2.15l-.3,0a8.72,8.72,0,0,0-1.44-.1c-1.43,0-2.89.24-4.32.24A6.58,6.58,0,0,1,169.65,31a10.79,10.79,0,0,0-8-3.8Z"/><path class="cls-3" d="M662.6,254.34a3.5,3.5,0,0,1-1.57-.89c-5.29-7.79-10.55-15.79-15.65-23.56,1.14,1.06,2.29,2.08,3.43,3.1,6.12,5.45,11.89,10.6,14.66,18.34a6.13,6.13,0,0,1,.18.91c0,.15.05.31.08.49l-.17.28A7.08,7.08,0,0,1,662.6,254.34Z"/><path class="cls-4" d="M657.41,244.48a30.27,30.27,0,0,1,2.25,3.36l-2.25-3.36M639,223.5a3.44,3.44,0,0,0,.28.8c6.65,10.11,13.27,20.26,20.07,30.27a4.93,4.93,0,0,0,3.35,1.79,1.52,1.52,0,0,0,.45-.07c1.24-.43,2-2.27,2.66-3.11a22.4,22.4,0,0,0-.49-2.53c-4.18-11.72-14.88-17.85-22.8-26.36-.68-.72-2.32-.55-3.52-.79Z"/><path class="cls-3" d="M465.78,152.48l-.2.53c.06-.18.12-.35.19-.53Z"/><path class="cls-4" d="M465.77,152.48h0c-.07.18-.13.35-.19.53l.2-.53Z"/></svg>